<svg width="800" height="800" viewBox="0 0 800 800" fill="none" xmlns="http://www.w3.org/2000/svg">
  <defs>
    <linearGradient id="bg" x1="0" y1="0" x2="1" y2="1">
      <stop offset="0%" stop-color="#fbf7f0"/>
      <stop offset="100%" stop-color="#e6c9b8"/>
    </linearGradient>
  </defs>
  <rect width="800" height="800" fill="url(#bg)"/>
  <circle cx="150" cy="150" r="120" fill="#e2eadc" opacity="0.7"/>
  <circle cx="640" cy="640" r="190" fill="#7f9170" opacity="0.16"/>
  <path d="M260 180 C180 280 180 520 260 620 C300 670 360 690 400 690 C440 690 500 670 540 620 C620 520 620 280 540 180" stroke="#6a7b5e" stroke-width="10" fill="none" stroke-linecap="round"/>
  <path d="M300 220 C240 300 240 500 300 580 C330 620 370 640 400 640 C430 640 470 620 500 580 C560 500 560 300 500 220" stroke="#f3ede2" stroke-width="6" fill="none" stroke-linecap="round"/>
  <circle cx="300" cy="240" r="10" fill="#c0916f"/>
  <circle cx="270" cy="320" r="10" fill="#c0916f"/>
  <circle cx="260" cy="420" r="10" fill="#c0916f"/>
  <circle cx="270" cy="520" r="10" fill="#c0916f"/>
  <circle cx="300" cy="600" r="10" fill="#c0916f"/>
  <circle cx="500" cy="240" r="10" fill="#c0916f"/>
  <circle cx="530" cy="320" r="10" fill="#c0916f"/>
  <circle cx="540" cy="420" r="10" fill="#c0916f"/>
  <circle cx="530" cy="520" r="10" fill="#c0916f"/>
  <circle cx="500" cy="600" r="10" fill="#c0916f"/>
  <circle cx="400" cy="420" r="36" fill="#e2eadc" opacity="0.8"/>
  <circle cx="400" cy="420" r="20" fill="#c0916f"/>
</svg>
