<svg width="960" height="720" viewBox="0 0 960 720" fill="none" xmlns="http://www.w3.org/2000/svg">
  <defs>
    <linearGradient id="bg" x1="0" y1="0" x2="1" y2="1">
      <stop offset="0%" stop-color="#fbf7f0"/>
      <stop offset="100%" stop-color="#f3ede2"/>
    </linearGradient>
  </defs>
  <rect width="960" height="720" fill="url(#bg)"/>
  <circle cx="760" cy="160" r="150" fill="#e2eadc" opacity="0.7"/>
  <circle cx="180" cy="600" r="210" fill="#e6c9b8" opacity="0.4"/>
  <rect x="300" y="220" width="200" height="350" rx="80" fill="#f3ede2" stroke="#6a7b5e" stroke-width="4"/>
  <rect x="330" y="170" width="140" height="70" rx="24" fill="#e2c7ae" stroke="#6a7b5e" stroke-width="4"/>
  <rect x="360" y="120" width="80" height="70" rx="16" fill="#f3ede2" stroke="#6a7b5e" stroke-width="4"/>
  <line x1="400" y1="190" x2="400" y2="320" stroke="#6a7b5e" stroke-width="4" stroke-linecap="round"/>
  <circle cx="400" cy="340" r="14" fill="#c0916f"/>
  <rect x="520" y="320" width="180" height="200" rx="60" fill="#fbf7f0" stroke="#6a7b5e" stroke-width="4"/>
  <rect x="550" y="290" width="120" height="40" rx="20" fill="#e2c7ae" stroke="#6a7b5e" stroke-width="4"/>
  <path d="M560 520 C590 490 640 470 690 480 C660 520 610 540 560 520Z" fill="#7f9170" opacity="0.6"/>
</svg>
