<svg width="960" height="720" viewBox="0 0 960 720" fill="none" xmlns="http://www.w3.org/2000/svg">
  <defs>
    <linearGradient id="bg" x1="0" y1="0" x2="1" y2="1">
      <stop offset="0%" stop-color="#fbf7f0"/>
      <stop offset="100%" stop-color="#e2eadc"/>
    </linearGradient>
  </defs>
  <rect width="960" height="720" fill="url(#bg)"/>
  <circle cx="820" cy="130" r="140" fill="#e6c9b8" opacity="0.5"/>
  <circle cx="140" cy="620" r="200" fill="#7f9170" opacity="0.18"/>
  <path d="M180 520 C240 440 320 380 420 360" stroke="#6a7b5e" stroke-width="4" stroke-linecap="round"/>
  <path d="M420 360 C470 350 520 370 560 420" stroke="#6a7b5e" stroke-width="4" stroke-linecap="round"/>
  <path d="M260 520 C280 480 320 450 360 440" stroke="#6a7b5e" stroke-width="3" stroke-linecap="round"/>
  <path d="M520 460 C540 430 580 410 620 400" stroke="#6a7b5e" stroke-width="3" stroke-linecap="round"/>
  <path d="M260 520 C300 520 340 540 360 580 C320 580 280 560 260 520Z" fill="#7f9170" opacity="0.6"/>
  <path d="M520 460 C560 460 600 480 620 520 C580 520 540 500 520 460Z" fill="#7f9170" opacity="0.55"/>
  <rect x="540" y="190" width="220" height="320" rx="90" fill="#f3ede2" stroke="#6a7b5e" stroke-width="4"/>
  <rect x="570" y="150" width="160" height="70" rx="32" fill="#e2c7ae" stroke="#6a7b5e" stroke-width="4"/>
  <circle cx="650" cy="420" r="46" fill="#e6c9b8" opacity="0.7"/>
</svg>
